<svg width="377" height="220" viewBox="0 0 377 220" fill="none" xmlns="http://www.w3.org/2000/svg">
<path d="M115.733 54.723V207.358C148.499 200.492 115.733 207.358 148.499 200.492L148.439 76.0497L123.464 62.7973L123.428 32.8816L161.906 0V207.484C163.552 207.513 374.873 208.427 376.506 208.468C376.506 228.963 376.506 215.64 376.506 215.64C376.506 215.64 85.3678 215.64 6.98951e-06 215.64C-8.84461e-06 204.608 7.17543e-06 207.358 7.17543e-06 207.358C7.17543e-06 207.358 19.7382 207.358 77.449 207.358L77.2554 79.5206L115.733 54.723Z" fill="#C4C4C4"/>
<path fill-rule="evenodd" clip-rule="evenodd" d="M209.03 126.912C206.42 131.399 205.115 136.302 205.115 141.622C205.115 146.941 206.42 151.844 209.03 156.332C211.676 160.819 215.247 164.383 219.742 167.025C224.237 169.63 229.149 170.933 234.478 170.933C239.807 170.933 244.719 169.63 249.215 167.025C253.71 164.383 257.262 160.819 259.872 156.332C262.519 151.844 263.842 146.941 263.842 141.622C263.842 136.302 262.519 131.399 259.872 126.912C257.262 122.425 253.71 118.878 249.215 116.273C244.719 113.631 239.807 112.31 234.478 112.31C229.149 112.31 224.237 113.631 219.742 116.273C215.247 118.878 211.676 122.425 209.03 126.912ZM205.659 158.286C202.686 153.183 201.2 147.629 201.2 141.622C201.2 135.615 202.686 130.06 205.659 124.958C208.631 119.855 212.673 115.821 217.785 112.853C222.896 109.886 228.461 108.402 234.478 108.402C240.496 108.402 246.061 109.886 251.172 112.853C256.284 115.821 260.326 119.855 263.298 124.958C266.271 130.06 267.757 135.615 267.757 141.622C267.757 147.629 266.271 153.183 263.298 158.286C260.326 163.388 256.284 167.423 251.172 170.39C246.061 173.357 240.496 174.841 234.478 174.841C228.461 174.841 222.896 173.357 217.785 170.39C212.673 167.423 208.631 163.388 205.659 158.286ZM200.221 127.183C198.263 131.779 197.285 136.592 197.285 141.622C197.285 146.652 198.263 151.464 200.221 156.06C202.179 160.656 204.807 164.618 208.106 167.948C211.441 171.241 215.41 173.864 220.014 175.818C224.618 177.772 229.439 178.749 234.478 178.749C239.517 178.749 244.339 177.772 248.943 175.818C253.547 173.864 257.498 171.241 260.797 167.948C264.132 164.618 266.778 160.656 268.736 156.06C270.693 151.464 271.672 146.652 271.672 141.622C271.672 136.592 270.693 131.779 268.736 127.183C266.778 122.587 264.132 118.643 260.797 115.35C257.498 112.021 253.547 109.379 248.943 107.425C244.339 105.471 239.517 104.494 234.478 104.494C229.439 104.494 224.618 105.471 220.014 107.425C215.41 109.379 211.441 112.021 208.106 115.35C204.807 118.643 202.179 122.587 200.221 127.183ZM198.862 162.194C195.2 155.897 193.37 149.04 193.37 141.622C193.37 134.203 195.2 127.346 198.862 121.05C202.559 114.753 207.562 109.777 213.87 106.122C220.177 102.431 227.047 100.586 234.478 100.586C241.91 100.586 248.78 102.431 255.087 106.122C261.395 109.777 266.379 114.753 270.041 121.05C273.738 127.346 275.587 134.203 275.587 141.622C275.587 149.04 273.738 155.897 270.041 162.194C266.379 168.49 261.395 173.484 255.087 177.175C248.78 180.83 241.91 182.657 234.478 182.657C227.047 182.657 220.177 180.83 213.87 177.175C207.562 173.484 202.559 168.49 198.862 162.194Z" fill="#C4C4C5"/>
<path d="M339.915 116.219H290.758V104.494H359.491L339.915 116.219Z" fill="#C4C4C5"/>
<path d="M290.758 163.714L377 105.851V119.693L290.758 177.501V163.714Z" fill="#C4C4C5"/>
<path d="M327.843 167.025H377V178.749H308.268L327.843 167.025Z" fill="#C4C4C5"/>
<path fill-rule="evenodd" clip-rule="evenodd" d="M200.221 127.183C198.263 131.779 197.285 136.592 197.285 141.622C197.285 146.652 198.263 151.464 200.221 156.06C202.179 160.656 204.807 164.618 208.106 167.948C211.441 171.241 215.41 173.864 220.014 175.818C224.618 177.772 229.439 178.749 234.478 178.749C239.517 178.749 244.339 177.772 248.943 175.818C253.547 173.864 257.498 171.241 260.797 167.948C264.132 164.618 266.778 160.656 268.736 156.06C270.693 151.464 271.672 146.652 271.672 141.622C271.672 136.592 270.693 131.779 268.736 127.183C266.778 122.587 264.132 118.643 260.797 115.35C257.498 112.021 253.547 109.379 248.943 107.425C244.339 105.471 239.517 104.494 234.478 104.494C229.439 104.494 224.618 105.471 220.014 107.425C215.41 109.379 211.441 112.021 208.106 115.35C204.807 118.643 202.179 122.587 200.221 127.183ZM201.2 141.622C201.2 147.629 202.686 153.183 205.659 158.286C208.631 163.388 212.673 167.423 217.785 170.39C222.896 173.357 228.461 174.841 234.478 174.841C240.496 174.841 246.061 173.357 251.172 170.39C256.284 167.423 260.326 163.388 263.298 158.286C266.271 153.183 267.757 147.629 267.757 141.622C267.757 135.615 266.271 130.06 263.298 124.958C260.326 119.855 256.284 115.821 251.172 112.853C246.061 109.886 240.496 108.402 234.478 108.402C228.461 108.402 222.896 109.886 217.785 112.853C212.673 115.821 208.631 119.855 205.659 124.958C202.686 130.06 201.2 135.615 201.2 141.622Z" fill="#C4C4C5"/>
<path fill-rule="evenodd" clip-rule="evenodd" d="M334.097 163.117L340.568 159.208H377V163.117H334.097ZM333.662 120.127L327.191 124.035H290.758V120.127H333.662ZM377 124.252V128.812L296.577 182.657H377V186.566H290.758V181.952L377 124.252ZM371.182 100.586H290.758V96.6778H377V101.346L290.758 159.046V154.54L371.182 100.586Z" fill="#C4C4C4"/>
<path fill-rule="evenodd" clip-rule="evenodd" d="M211.042 151.501C209.701 148.352 209.03 145.059 209.03 141.622C209.03 138.184 209.701 134.909 211.042 131.797C212.383 128.649 214.196 125.935 216.48 123.655C218.764 121.375 221.464 119.566 224.582 118.227C227.736 116.888 231.035 116.219 234.478 116.219C237.922 116.219 241.203 116.888 244.321 118.227C247.474 119.566 250.193 121.375 252.477 123.655C254.761 125.935 256.574 128.649 257.915 131.797C259.256 134.909 259.927 138.184 259.927 141.622C259.927 145.059 259.256 148.352 257.915 151.501C256.574 154.613 254.761 157.309 252.477 159.588C250.193 161.868 247.474 163.677 244.321 165.016C241.203 166.355 237.922 167.025 234.478 167.025C231.035 167.025 227.736 166.355 224.582 165.016C221.464 163.677 218.764 161.868 216.48 159.588C214.196 157.309 212.383 154.613 211.042 151.501ZM212.945 141.622C212.945 135.687 215.048 130.621 219.253 126.423C223.458 122.226 228.533 120.127 234.478 120.127C240.424 120.127 245.499 122.226 249.704 126.423C253.909 130.621 256.012 135.687 256.012 141.622C256.012 147.556 253.909 152.622 249.704 156.82C245.499 161.018 240.424 163.117 234.478 163.117C228.533 163.117 223.458 161.018 219.253 156.82C215.048 152.622 212.945 147.556 212.945 141.622Z" fill="#C4C4C4"/>
<path fill-rule="evenodd" clip-rule="evenodd" d="M189.454 141.622C189.454 135.542 190.633 129.734 192.989 124.198C195.381 118.625 198.59 113.83 202.614 109.814C206.637 105.797 211.423 102.612 216.969 100.26C222.552 97.8719 228.388 96.6778 234.478 96.6778C240.569 96.6778 246.387 97.8719 251.933 100.26C257.516 102.612 262.319 105.797 266.343 109.814C270.367 113.83 273.557 118.625 275.914 124.198C278.306 129.734 279.502 135.542 279.502 141.622C279.502 147.701 278.306 153.527 275.914 159.1C273.557 164.636 270.367 169.413 266.343 173.43C262.319 177.447 257.516 180.649 251.933 183.037C246.387 185.39 240.569 186.566 234.478 186.566C228.388 186.566 222.552 185.39 216.969 183.037C211.423 180.649 206.637 177.447 202.614 173.43C198.59 169.413 195.381 164.636 192.989 159.1C190.633 153.527 189.454 147.701 189.454 141.622ZM185.539 141.622C185.539 148.244 186.826 154.577 189.4 160.62C192.01 166.627 195.49 171.82 199.84 176.198C204.227 180.541 209.429 183.996 215.447 186.566C221.5 189.171 227.844 190.474 234.478 190.474C241.112 190.474 247.438 189.171 253.456 186.566C259.51 183.996 264.712 180.541 269.062 176.198C273.448 171.82 276.929 166.627 279.502 160.62C282.112 154.577 283.418 148.244 283.418 141.622C283.418 135 282.112 128.685 279.502 122.678C276.929 116.635 273.448 111.442 269.062 107.1C264.712 102.721 259.51 99.247 253.456 96.6778C247.438 94.0723 241.112 92.7696 234.478 92.7696C227.844 92.7696 221.5 94.0723 215.447 96.6778C209.429 99.247 204.227 102.721 199.84 107.1C195.49 111.442 192.01 116.635 189.4 122.678C186.826 128.685 185.539 135 185.539 141.622Z" fill="#C4C4C4"/>
</svg>
