<svg xmlns="http://www.w3.org/2000/svg" version="1.1" xmlns:xlink="http://www.w3.org/1999/xlink" xmlns:svgjs="http://svgjs.com/svgjs" width="237.1293" height="263.9462"><svg id="SvgjsSvg1002" xmlns="http://www.w3.org/2000/svg" viewBox="0 0 237.1293 263.9462"><g id="SvgjsG1001"><g id="SvgjsG1000"><path d="m137.3384,219.8003h-58.8507v-66.0835l58.8507-32.7526v98.8361Zm97.9142-56.0903v-14.8021l-79.3497-44.0005-82.4198,45.8675v74.0283h68.8582v-106.6225l13.5616-7.5496,74.3469,41.2241v8.977l-76.8492,44.7711v19.1998h81.8521v-39.9302h-5.0029v34.9274h-71.8445v-11.3191l76.8474-44.7712Z" style="fill:#00543b;"></path><path d="m80.3644,217.9237h55.0972v-93.7692l-55.0972,30.6667v63.1025Zm58.8507,3.7517h-62.6041v-69.061l62.6041-34.842v103.903Zm16.0621,1.2512h78.0986v-36.1786h-1.2512v34.9274h-75.5962v-14.2717l76.8474-44.7712v-12.6201l-77.4739-42.9558-80.5422,44.8228v71.0472h65.1065v-105.8483l15.4357-8.5961,76.2227,42.2671v11.1607l-76.8474,44.7712v16.2455Zm81.8521,3.7535h-85.6055v-22.1542l76.8492-44.7712v-6.795l-72.471-40.1812-11.684,6.5032v107.3984h-72.6116v-77.0094l84.2956-46.9104,81.2273,45.0435v16.9841l-76.8474,44.7711v8.3648h68.0911v-34.9292h8.7563v43.6855Z" style="fill:#00543b;"></path><path d="m78.3937,153.7357l58.8489-32.7526v98.8361h-58.8489v-66.0835ZM142.2472,0L.0495,79.0436l-.0495,184.9025h236.9917v-23.8343h-5.0047v18.8297H5.0524V81.9873L137.2426,8.5072v106.7506l-63.8535,35.5361v74.0283h68.8582v-106.6225l13.5598-7.5496,74.3486,41.2241v8.977l-76.8492,44.7729v19.198h81.852v-39.932h-5.0029v34.9292h-71.8445v-11.3174l76.8474-44.7729v-14.8021l-79.3515-44.0005-13.5598,7.5461V0Z" style="fill:#00543b;"></path></g></g></svg><style>@media (prefers-color-scheme: light) { :root { filter: none; } }
@media (prefers-color-scheme: dark) { :root { filter: contrast(0.625) brightness(2.5); } }
</style></svg>