<?xml version="1.0" encoding="utf-8"?>
<!-- Generator: Adobe Illustrator 27.0.1, SVG Export Plug-In . SVG Version: 6.00 Build 0)  -->
<svg version="1.1" id="Layer_1" xmlns="http://www.w3.org/2000/svg" xmlns:xlink="http://www.w3.org/1999/xlink" x="0px" y="0px"
	 viewBox="0 0 1920 1080" style="enable-background:new 0 0 1920 1080;" xml:space="preserve">
<style type="text/css">
	.st0{fill:none;}
	.st1{fill:#59804A;}
	.st2{fill:#113A2E;}
	.st3{opacity:0.37;fill:url(#New_Pattern_3);}
</style>
<pattern  width="278.1" height="267.6" patternUnits="userSpaceOnUse" id="New_Pattern_3" viewBox="82 -336.6 278.1 267.6" style="overflow:visible;">
	<g>
		<rect x="82" y="-336.6" class="st0" width="278.1" height="267.6"/>
		<g>
			<g>
				<path class="st1" d="M329.7-90l-22.1,12.3v24.8h22.1V-90z M337.6-57.1v4.3h27V-66h1.9v15h-30.8v-7.2L364.6-75v-3.4l-27.9-15.5
					l-5.1,2.8V-51h-25.9v-27.8l31-17.2l29.8,16.5v5.6L337.6-57.1z"/>
				<path class="st1" d="M308.3-77.2L329-88.8v35.2h-20.7V-77.2z M330.4-91.2l-23.5,13.1v25.9h23.5V-91.2z M336.4-57.8l28.9-16.8
					v-4.2l-28.6-15.9l-5.8,3.2v39.8h-24.5v-26.7l30.3-16.8l29.1,16.1v4.7l-28.9,16.8v5.4h28.4v-13.1h0.5v13.6h-29.3V-57.8z
					 M367.2-66.7h-3.3v13.1h-25.6v-3.1l28.9-16.8v-6.4l-30.5-16.9L305-79.2v28.9h27.3v-40.3l4.4-2.4l27.2,15.1v2.6L335-58.6v8.3
					h32.2V-66.7z"/>
				<path class="st1" d="M329.7-90l-22.1,12.3v24.8h22.1V-90z M337.6-57.1v4.3h27V-66h1.9v15h-30.8v-7.2L364.6-75v-3.4l-27.9-15.5
					l-5.1,2.8V-51h-25.9v-27.8l24-13.3v-40.1L280-104.6v66.5h84.6v-7.1h1.9v9h-88.3v-69.5l53.4-29.7v42.3l5.1-2.8l29.8,16.5v5.6
					L337.6-57.1z"/>
			</g>
			<g>
				<path class="st1" d="M390-155l-22.1,12.3v24.8H390V-155z M397.9-122.1v4.3h27V-131h1.9v15H396v-7.2l28.9-16.8v-3.4L397-158.9
					l-5.1,2.8v40.1H366v-27.8l24-13.3v-40.1l-49.7,27.6v66.5h84.6v-7.1h1.9v9h-88.3v-69.5l53.4-29.7v42.3l5.1-2.8l29.8,16.5v5.6
					L397.9-122.1z"/>
			</g>
		</g>
		<g>
			<g>
				<path class="st1" d="M51.6-90L29.5-77.7v24.8h22.1V-90z M59.5-57.1v4.3h27V-66h1.9v15H57.6v-7.2L86.5-75v-3.4L58.6-93.9L53.5-91
					V-51H27.6v-27.8l31-17.2l29.8,16.5v5.6L59.5-57.1z"/>
				<path class="st1" d="M30.2-77.2l20.7-11.5v35.2H30.2V-77.2z M52.3-91.2L28.8-78.1v25.9h23.5V-91.2z M58.3-57.8l28.9-16.8v-4.2
					L58.6-94.7l-5.8,3.2v39.8H28.3v-26.7l30.3-16.8l29.1,16.1v4.7L58.8-57.5v5.4h28.4v-13.1h0.5v13.6H58.3V-57.8z M89.1-66.7h-3.3
					v13.1H60.2v-3.1l28.9-16.8v-6.4L58.6-96.8L26.9-79.2v28.9h27.3v-40.3l4.4-2.4l27.2,15.1v2.6L56.9-58.6v8.3h32.2V-66.7z"/>
				<path class="st1" d="M51.5-90L29.4-77.7v24.8h22.1V-90z M59.5-57.1v4.3h27V-66h1.9v15H57.6v-7.2L86.4-75v-3.4L58.5-93.8L53.4-91
					V-51H27.6v-27.8l24-13.3v-40.1L1.9-104.6v66.5h84.6v-7.1h1.9v9H0v-69.5l53.4-29.7v42.3l5.1-2.8l29.8,16.5v5.6L59.5-57.1z"/>
			</g>
			<g>
				<path class="st1" d="M111.9-155l-22.1,12.3v24.8h22.1V-155z M119.8-122.1v4.3h27V-131h1.9v15H118v-7.2l28.9-16.8v-3.4
					l-27.9-15.5l-5.1,2.8v40.1H87.9v-27.8l31-17.2l29.8,16.5v5.6L119.8-122.1z"/>
				<path class="st1" d="M90.5-142.3l20.7-11.5v35.2H90.5V-142.3z M112.6-156.2l-23.5,13.1v25.9h23.5V-156.2z M118.7-122.8
					l28.9-16.8v-4.2l-28.6-15.9l-5.8,3.2v39.8H88.6v-26.7l30.3-16.8l29.1,16.1v4.7l-28.9,16.8v5.4h28.4v-13.1h0.5v13.6h-29.3V-122.8
					z M149.4-131.7h-3.3v13.1h-25.6v-3.1l28.9-16.8v-6.4l-30.5-16.9l-31.7,17.6v28.9h27.3v-40.3l4.4-2.4l27.2,15.1v2.6l-28.9,16.8
					v8.3h32.2V-131.7z"/>
				<path class="st1" d="M111.9-155l-22.1,12.3v24.8h22.1V-155z M119.8-122.1v4.3h27V-131h1.9v15h-30.8v-7.2l28.9-16.8v-3.4
					l-27.9-15.5l-5.1,2.8v40.1H87.9v-27.8l24-13.3v-40.1l-49.7,27.6v66.5h84.6v-7.1h1.9v9H60.3v-69.5l53.4-29.7v42.3l5.1-2.8
					l29.8,16.5v5.6L119.8-122.1z"/>
			</g>
			<g>
				<path class="st1" d="M146.6-53.7l-22.1,12.3v24.8h22.1V-53.7z M154.5-20.8v4.3h27v-13.1h1.9v15h-30.8v-7.2l28.9-16.8v-3.4
					l-27.9-15.5l-5.1,2.8v40.1h-25.9v-27.8l24-13.3V-96L96.9-68.4v66.5h84.6V-9h1.9v9H95.1v-69.5l53.4-29.7v42.3l5.1-2.8l29.8,16.5
					v5.6L154.5-20.8z"/>
			</g>
		</g>
		<g>
			<g>
				<path class="st1" d="M329.7-357.6l-22.1,12.3v24.8h22.1V-357.6z M337.6-324.7v4.3h27v-13.1h1.9v15h-30.8v-7.2l28.9-16.8v-3.4
					l-27.9-15.5l-5.1,2.8v40.1h-25.9v-27.8l31-17.2l29.8,16.5v5.6L337.6-324.7z"/>
				<path class="st1" d="M308.3-344.8l20.7-11.5v35.2h-20.7V-344.8z M330.4-358.8l-23.5,13.1v25.9h23.5V-358.8z M336.4-325.4
					l28.9-16.8v-4.2l-28.6-15.9l-5.8,3.2v39.8h-24.5v-26.7l30.3-16.8l29.1,16.1v4.7l-28.9,16.8v5.4h28.4v-13.1h0.5v13.6h-29.3
					V-325.4z M367.2-334.3h-3.3v13.1h-25.6v-3.1l28.9-16.8v-6.4l-30.5-16.9L305-346.8v28.9h27.3v-40.3l4.4-2.4l27.2,15.1v2.6
					L335-326.2v8.3h32.2V-334.3z"/>
				<path class="st1" d="M329.7-357.6l-22.1,12.3v24.8h22.1V-357.6z M337.6-324.7v4.3h27v-13.1h1.9v15h-30.8v-7.2l28.9-16.8v-3.4
					l-27.9-15.5l-5.1,2.8v40.1h-25.9v-27.8l24-13.3v-40.1L280-372.2v66.5h84.6v-7.1h1.9v9h-88.3v-69.5l53.4-29.7v42.3l5.1-2.8
					l29.8,16.5v5.6L337.6-324.7z"/>
			</g>
			<g>
				<path class="st1" d="M364.5-255.7l-22.1,12.3v24.8h22.1V-255.7z M372.4-222.8v4.3h27v-13.1h1.9v15h-30.8v-7.2l28.9-16.8v-3.4
					l-27.9-15.5l-5.1,2.8v40.1h-25.9v-27.8l31-17.2l29.8,16.5v5.6L372.4-222.8z"/>
				<path class="st1" d="M343.1-243l20.7-11.5v35.2h-20.7V-243z M365.2-256.9l-23.5,13.1v25.9h23.5V-256.9z M371.2-223.5l28.9-16.8
					v-4.2l-28.6-15.9l-5.8,3.2v39.8h-24.5v-26.7l30.3-16.8l29.1,16.1v4.7l-28.9,16.8v5.4h28.4V-231h0.5v13.6h-29.3V-223.5z
					 M401.9-232.4h-3.3v13.1h-25.6v-3.1l28.9-16.8v-6.4l-30.5-16.9l-31.7,17.6v28.9H367v-40.3l4.4-2.4l27.2,15.1v2.6l-28.9,16.8v8.3
					h32.2V-232.4z"/>
				<path class="st1" d="M364.4-255.7l-22.1,12.3v24.8h22.1V-255.7z M372.3-222.8v4.3h27v-13.1h1.9v15h-30.8v-7.2l28.9-16.8v-3.4
					l-27.9-15.5l-5.1,2.8v40.1h-25.9v-27.8l24-13.3v-40.1l-49.7,27.6v66.5h84.6v-7.1h1.9v9h-88.3v-69.5l53.4-29.7v42.3l5.1-2.8
					l29.8,16.5v5.6L372.3-222.8z"/>
			</g>
		</g>
		<g>
			<g>
				<path class="st1" d="M190.6-223.8l-22.1,12.3v24.8h22.1V-223.8z M198.5-190.9v4.3h27v-13.1h1.9v15h-30.8v-7.2l28.9-16.8v-3.4
					l-27.9-15.5l-5.1,2.8v40.1h-25.9v-27.8l31-17.2l29.8,16.5v5.6L198.5-190.9z"/>
				<path class="st1" d="M169.2-211l20.7-11.5v35.2h-20.7V-211z M191.3-225l-23.5,13.1v25.9h23.5V-225z M197.4-191.6l28.9-16.8v-4.2
					l-28.6-15.9l-5.8,3.2v39.8h-24.5v-26.7l30.3-16.8l29.1,16.1v4.7l-28.9,16.8v5.4h28.4V-199h0.5v13.6h-29.3V-191.6z M228.1-200.5
					h-3.3v13.1h-25.6v-3.1l28.9-16.8v-6.4l-30.5-16.9L165.9-213v28.9h27.3v-40.3l4.4-2.4l27.2,15.1v2.6L196-192.4v8.3h32.2V-200.5z"
					/>
				<path class="st1" d="M190.6-223.8l-22.1,12.3v24.8h22.1V-223.8z M198.5-190.9v4.3h27v-13.1h1.9v15h-30.8v-7.2l28.9-16.8v-3.4
					l-27.9-15.5l-5.1,2.8v40.1h-25.9v-27.8l24-13.3V-266l-49.7,27.6v66.5h84.6v-7.1h1.9v9h-88.3v-69.5l53.4-29.7v42.3l5.1-2.8
					l29.8,16.5v5.6L198.5-190.9z"/>
			</g>
			<g>
				<path class="st1" d="M225.4-121.9l-22.1,12.3v24.8h22.1V-121.9z M233.3-89v4.3h27v-13.1h1.9v15h-30.8v-7.2l28.9-16.8v-3.4
					l-27.9-15.5l-5.1,2.8v40.1h-25.9v-27.8l31-17.2l29.8,16.5v5.6L233.3-89z"/>
				<path class="st1" d="M204-109.2l20.7-11.5v35.2H204V-109.2z M226.1-123.1L202.6-110v25.9h23.5V-123.1z M232.1-89.7l28.9-16.8
					v-4.2l-28.6-15.9l-5.8,3.2v39.8h-24.5v-26.7l30.3-16.8l29.1,16.1v4.7l-28.9,16.8v5.4H261v-13.1h0.5v13.6h-29.3V-89.7z
					 M262.9-98.6h-3.3v13.1H234v-3.1l28.9-16.8v-6.4l-30.5-16.9l-31.7,17.6v28.9H228v-40.3l4.4-2.4l27.2,15.1v2.6l-28.9,16.8v8.3
					h32.2V-98.6z"/>
				<path class="st1" d="M225.4-121.9l-22.1,12.3v24.8h22.1V-121.9z M233.3-89v4.3h27v-13.1h1.9v15h-30.8v-7.2l28.9-16.8v-3.4
					l-27.9-15.5l-5.1,2.8v40.1h-25.9v-27.8l24-13.3v-40.1l-49.7,27.6v66.5h84.6v-7.1h1.9v9h-88.3v-69.5l53.4-29.7v42.3l5.1-2.8
					l29.8,16.5v5.6L233.3-89z"/>
			</g>
			<g>
				<path class="st1" d="M251-288.8l-22.1,12.3v24.8H251V-288.8z M258.9-255.9v4.3h27v-13.1h1.9v15H257v-7.2l28.9-16.8v-3.4
					l-27.9-15.5l-5.1,2.8v40.1H227v-27.8l31-17.2l29.8,16.5v5.6L258.9-255.9z"/>
				<path class="st1" d="M229.6-276.1l20.7-11.5v35.2h-20.7V-276.1z M251.7-290l-23.5,13.1v25.9h23.5V-290z M257.7-256.6l28.9-16.8
					v-4.2l-28.6-15.9l-5.8,3.2v39.8h-24.5v-26.7l30.3-16.8l29.1,16.1v4.7l-28.9,16.8v5.4h28.4v-13.1h0.5v13.6h-29.3V-256.6z
					 M288.5-265.5h-3.3v13.1h-25.6v-3.1l28.9-16.8v-6.4l-30.5-16.9L226.3-278v28.9h27.3v-40.3l4.4-2.4l27.2,15.1v2.6l-28.9,16.8v8.3
					h32.2V-265.5z"/>
				<path class="st1" d="M250.9-288.8l-22.1,12.3v24.8h22.1V-288.8z M258.9-255.9v4.3h27v-13.1h1.9v15H257v-7.2l28.9-16.8v-3.4
					l-27.9-15.5l-5.1,2.8v40.1h-25.9v-27.8l24-13.3v-40.1l-49.7,27.6v66.5h84.6v-7.1h1.9v9h-88.3v-69.5l53.4-29.7v42.3l5.1-2.8
					l29.8,16.5v5.6L258.9-255.9z"/>
			</g>
			<g>
				<path class="st1" d="M285.7-187.5l-22.1,12.3v24.8h22.1V-187.5z M293.6-154.6v4.3h27v-13.1h1.9v15h-30.8v-7.2l28.9-16.8v-3.4
					l-27.9-15.5l-5.1,2.8v40.1h-25.9v-27.8l31-17.2l29.8,16.5v5.6L293.6-154.6z"/>
				<path class="st1" d="M264.3-174.8l20.7-11.5v35.2h-20.7V-174.8z M286.4-188.7l-23.5,13.1v25.9h23.5V-188.7z M292.4-155.3
					l28.9-16.8v-4.2l-28.6-15.9l-5.8,3.2v39.8h-24.5v-26.7l30.3-16.8l29.1,16.1v4.7L292.9-155v5.4h28.4v-13.1h0.5v13.6h-29.3V-155.3
					z M323.2-164.2h-3.3v13.1h-25.6v-3.1l28.9-16.8v-6.4l-30.5-16.9L261-176.7v28.9h27.3v-40.3l4.4-2.4l27.2,15.1v2.6L291-156.1v8.3
					h32.2V-164.2z"/>
				<path class="st1" d="M285.7-187.5l-22.1,12.3v24.8h22.1V-187.5z M293.6-154.6v4.3h27v-13.1h1.9v15h-30.8v-7.2l28.9-16.8v-3.4
					l-27.9-15.5l-5.1,2.8v40.1h-25.9v-27.8l24-13.3v-40.1L236-202.2v66.5h84.6v-7.1h1.9v9h-88.3v-69.5l53.4-29.7v42.3l5.1-2.8
					l29.8,16.5v5.6L293.6-154.6z"/>
			</g>
		</g>
		<g>
			<g>
				<path class="st1" d="M51.6-357.6l-22.1,12.3v24.8h22.1V-357.6z M59.5-324.7v4.3h27v-13.1h1.9v15H57.6v-7.2l28.9-16.8v-3.4
					l-27.9-15.5l-5.1,2.8v40.1H27.6v-27.8l31-17.2l29.8,16.5v5.6L59.5-324.7z"/>
				<path class="st1" d="M30.2-344.8l20.7-11.5v35.2H30.2V-344.8z M52.3-358.8l-23.5,13.1v25.9h23.5V-358.8z M58.3-325.4l28.9-16.8
					v-4.2l-28.6-15.9l-5.8,3.2v39.8H28.3v-26.7l30.3-16.8l29.1,16.1v4.7l-28.9,16.8v5.4h28.4v-13.1h0.5v13.6H58.3V-325.4z
					 M89.1-334.3h-3.3v13.1H60.2v-3.1l28.9-16.8v-6.4l-30.5-16.9l-31.7,17.6v28.9h27.3v-40.3l4.4-2.4l27.2,15.1v2.6l-28.9,16.8v8.3
					h32.2V-334.3z"/>
				<path class="st1" d="M51.5-357.6l-22.1,12.3v24.8h22.1V-357.6z M59.5-324.7v4.3h27v-13.1h1.9v15H57.6v-7.2l28.9-16.8v-3.4
					l-27.9-15.5l-5.1,2.8v40.1H27.6v-27.8l24-13.3v-40.1L1.9-372.2v66.5h84.6v-7.1h1.9v9H0v-69.5L53.4-403v42.3l5.1-2.8l29.8,16.5
					v5.6L59.5-324.7z"/>
			</g>
			<g>
				<path class="st1" d="M86.3-255.7l-22.1,12.3v24.8h22.1V-255.7z M94.3-222.8v4.3h27v-13.1h1.9v15H92.4v-7.2l28.9-16.8v-3.4
					l-27.9-15.5l-5.1,2.8v40.1H62.4v-27.8l31-17.2l29.8,16.5v5.6L94.3-222.8z"/>
				<path class="st1" d="M64.9-243l20.7-11.5v35.2H64.9V-243z M87-256.9l-23.5,13.1v25.9H87V-256.9z M93.1-223.5l28.9-16.8v-4.2
					l-28.6-15.9l-5.8,3.2v39.8H63.1v-26.7l30.3-16.8l29.1,16.1v4.7l-28.9,16.8v5.4H122V-231h0.5v13.6H93.1V-223.5z M123.8-232.4
					h-3.3v13.1H95v-3.1l28.9-16.8v-6.4l-30.5-16.9l-31.7,17.6v28.9h27.3v-40.3l4.4-2.4l27.2,15.1v2.6l-28.9,16.8v8.3h32.2V-232.4z"
					/>
				<path class="st1" d="M86.3-255.7l-22.1,12.3v24.8h22.1V-255.7z M94.2-222.8v4.3h27v-13.1h1.9v15H92.3v-7.2l28.9-16.8v-3.4
					l-27.9-15.5l-5.1,2.8v40.1H62.3v-27.8l24-13.3v-40.1l-49.7,27.6v66.5h84.6v-7.1h1.9v9H34.8v-69.5l53.4-29.7v42.3l5.1-2.8
					l29.8,16.5v5.6L94.2-222.8z"/>
			</g>
			<g>
				<path class="st1" d="M146.6-321.3L124.5-309v24.8h22.1V-321.3z M154.6-288.4v4.3h27v-13.1h1.9v15h-30.8v-7.2l28.9-16.8v-3.4
					l-27.9-15.5l-5.1,2.8v40.1h-25.9v-27.8l31-17.2l29.8,16.5v5.6L154.6-288.4z"/>
				<path class="st1" d="M125.2-308.6l20.7-11.5v35.2h-20.7V-308.6z M147.4-322.5l-23.5,13.1v25.9h23.5V-322.5z M153.4-289.1
					l28.9-16.8v-4.2L153.6-326l-5.8,3.2v39.8h-24.5v-26.7l30.3-16.8l29.1,16.1v4.7l-28.9,16.8v5.4h28.4v-13.1h0.5v13.6h-29.3V-289.1
					z M184.1-298h-3.3v13.1h-25.6v-3.1l28.9-16.8v-6.4l-30.5-16.9L122-310.5v28.9h27.3v-40.3l4.4-2.4l27.2,15.1v2.6L152-289.9v8.3
					h32.2V-298z"/>
				<path class="st1" d="M146.6-321.3L124.5-309v24.8h22.1V-321.3z M154.5-288.4v4.3h27v-13.1h1.9v15h-30.8v-7.2l28.9-16.8v-3.4
					l-27.9-15.5l-5.1,2.8v40.1h-25.9v-27.8l24-13.3v-40.1l-49.7,27.6v66.5h84.6v-7.1h1.9v9H95.1v-69.5l53.4-29.7v42.3l5.1-2.8
					l29.8,16.5v5.6L154.5-288.4z"/>
			</g>
		</g>
		<g>
			<g>
				<path class="st1" d="M225.4-389.5l-22.1,12.3v24.8h22.1V-389.5z M233.3-356.6v4.3h27v-13.1h1.9v15h-30.8v-7.2l28.9-16.8v-3.4
					l-27.9-15.5l-5.1,2.8v40.1h-25.9v-27.8l24-13.3v-40.1l-49.7,27.6v66.5h84.6v-7.1h1.9v9h-88.3v-69.5l53.4-29.7v42.3l5.1-2.8
					l29.8,16.5v5.6L233.3-356.6z"/>
			</g>
		</g>
	</g>
</pattern>
<rect class="st2" width="1920" height="1080"/>
<rect class="st3" width="1920" height="1080"/>
</svg>
