<?xml version="1.0" encoding="UTF-8"?><svg id="Layer_2" xmlns="http://www.w3.org/2000/svg" viewBox="0 0 678.0573 358.5114"><g id="Components"><g id="ab9f01b4-3985-4f19-9785-a04bfb2da99f_19"><path d="m25.0462,316.2942c-9.8856,0-17.1009,7.5055-17.1009,17.5354,0,10.1743,7.2153,17.6798,17.1009,17.6798,9.7412,0,17.1024-7.5055,17.1024-17.6798,0-9.9593-7.3612-17.5354-17.1024-17.5354m-.0737-7.0019c13.4955-.215,25.3311,10.9711,25.041,24.608.2902,13.6398-11.5455,24.826-25.041,24.608-13.6368.218-25.256-10.9681-24.9673-24.608-.215-13.6368,11.4011-24.823,24.9673-24.608" style="fill:#5a7f4b;"/><polygon points="95.8654 350.858 95.8654 357.7155 57.4732 357.7155 57.4732 355.6211 83.8854 316.9433 60.5749 316.9433 60.5749 310.0857 95.7917 310.0857 95.7917 312.1801 69.3073 350.858 95.8654 350.858" style="fill:#5a7f4b;"/><path d="m149.2161,350.8578c11.0418,0,18.1128-7.068,18.1128-17.0288,0-10.1036-6.9973-16.8123-18.1128-16.8123h-7.2138v33.841h7.2138Zm-14.8637-40.7722h14.9374c15.5869,0,25.9055,9.6706,25.9055,23.7434,0,13.8564-10.3893,23.8863-25.9055,23.8863h-14.9374v-47.6297Z" style="fill:#5a7f4b;"/><polygon points="189.4675 310.0856 220.7841 310.0856 220.7841 316.9431 197.1173 316.9431 197.1173 329.1381 214.9384 329.1381 214.9384 335.7791 197.1173 335.7791 197.1173 350.8578 221.6516 350.8578 221.6516 357.7153 189.4675 357.7153 189.4675 310.0856" style="fill:#5a7f4b;"/><polygon points="275.7042 310.0856 254.7061 358.5077 252.1081 358.5077 231.107 310.0856 239.6951 310.0856 253.4056 343.211 267.1161 310.0856 275.7042 310.0856" style="fill:#5a7f4b;"/><polygon points="287.1661 310.0856 318.4842 310.0856 318.4842 316.9431 294.8174 316.9431 294.8174 329.1381 312.6385 329.1381 312.6385 335.7791 294.8174 335.7791 294.8174 350.8578 319.3502 350.8578 319.3502 357.7153 287.1661 357.7153 287.1661 310.0856" style="fill:#5a7f4b;"/><polygon points="332.823 310.0856 340.4729 310.0856 340.4729 350.8578 362.2648 350.8578 362.2648 357.7153 332.823 357.7153 332.823 310.0856" style="fill:#5a7f4b;"/><path d="m394.4144,316.2942c-9.8856,0-17.1009,7.5055-17.1009,17.5354,0,10.1743,7.2154,17.6798,17.1009,17.6798,9.7413,0,17.1024-7.5055,17.1024-17.6798,0-9.9593-7.3612-17.5354-17.1024-17.5354m-.0736-7.0019c13.4955-.215,25.3311,10.9711,25.041,24.608.2902,13.6398-11.5455,24.826-25.041,24.608-13.6369.218-25.256-10.9681-24.9673-24.608-.215-13.6368,11.4011-24.823,24.9673-24.608" style="fill:#5a7f4b;"/><path d="m450.8104,332.5285c5.4111,0,8.4437-3.1017,8.4437-7.7912,0-4.6925-3.0326-7.8649-8.4437-7.8649h-9.5954v15.6561h9.5954Zm-17.2467-22.4429h17.3911c9.5969,0,16.1643,5.993,16.1643,14.578,0,8.5174-6.5674,14.6487-16.1643,14.6487h-9.7397v18.403h-7.6513v-47.6297Z" style="fill:#5a7f4b;"/><polygon points="524.9002 309.2923 524.9002 357.7144 517.2489 357.7144 517.2489 327.8397 503.6135 345.7359 501.0139 345.7359 487.3034 327.766 487.3034 357.7144 479.6536 357.7144 479.6536 309.2923 482.3223 309.2923 502.313 335.921 522.3021 309.2923 524.9002 309.2923" style="fill:#5a7f4b;"/><polygon points="542.0965 310.0856 573.4131 310.0856 573.4131 316.9431 549.7463 316.9431 549.7463 329.1381 567.5675 329.1381 567.5675 335.7791 549.7463 335.7791 549.7463 350.8578 574.2806 350.8578 574.2806 357.7153 542.0965 357.7153 542.0965 310.0856" style="fill:#5a7f4b;"/><polygon points="627.0127 310.0856 627.0127 358.5077 624.4146 358.5077 595.4059 325.4575 595.4059 357.7153 587.756 357.7153 587.756 309.2917 590.4247 309.2917 619.3628 342.1991 619.3628 310.0856 627.0127 310.0856" style="fill:#5a7f4b;"/><polygon points="638.297 310.0856 638.297 316.9416 654.3169 316.9416 654.3169 357.7153 661.9622 357.7153 661.9622 316.9416 678.0573 316.9416 678.0573 310.0856 638.297 310.0856" style="fill:#5a7f4b;"/><path d="m357.7773,219.8003h-58.8507v-66.0835l58.8507-32.7526v98.8361Zm97.9142-56.0903v-14.8021l-79.3497-44.0005-82.4198,45.8675v74.0283h68.8582v-106.6225l13.5616-7.5496,74.3469,41.2241v8.977l-76.8492,44.7711v19.1998h81.8521v-39.9302h-5.0029v34.9274h-71.8445v-11.3191l76.8474-44.7712Z" style="fill:#5a7f4b;"/><path d="m300.8034,217.9237h55.0972v-93.7692l-55.0972,30.6667v63.1025Zm58.8507,3.7517h-62.6041v-69.061l62.6041-34.842v103.903Zm16.0621,1.2512h78.0986v-36.1786h-1.2512v34.9274h-75.5962v-14.2717l76.8474-44.7712v-12.6201l-77.4739-42.9558-80.5422,44.8228v71.0472h65.1065v-105.8483l15.4357-8.5961,76.2227,42.2671v11.1607l-76.8474,44.7712v16.2455Zm81.8521,3.7535h-85.6055v-22.1542l76.8492-44.7712v-6.795l-72.471-40.1812-11.684,6.5032v107.3984h-72.6116v-77.0094l84.2956-46.9104,81.2273,45.0435v16.9841l-76.8474,44.7711v8.3648h68.0911v-34.9292h8.7563v43.6855Z" style="fill:#5a7f4b;"/><path d="m298.8326,153.7357l58.8489-32.7526v98.8361h-58.8489v-66.0835ZM362.6862,0l-142.1977,79.0436-.0495,184.9025h236.9917v-23.8343h-5.0047v18.8297h-226.9346V81.9873L357.6815,8.5072v106.7506l-63.8535,35.5361v74.0283h68.8582v-106.6225l13.5598-7.5496,74.3486,41.2241v8.977l-76.8492,44.7729v19.198h81.852v-39.932h-5.0029v34.9292h-71.8445v-11.3174l76.8474-44.7729v-14.8021l-79.3515-44.0005-13.5598,7.5461V0Z" style="fill:#5a7f4b;"/></g></g></svg>